<svg xmlns="http://www.w3.org/2000/svg" width="1200" height="850" viewBox="0 0 1200 850" role="img" aria-labelledby="green-2. Obergeschoss-title green-2. Obergeschoss-desc">
<title id="green-2. Obergeschoss-title">The Green Rest — 2. Obergeschoss</title><desc id="green-2. Obergeschoss-desc">Battlemap des 2. Obergeschoss von The Green Rest mit Fünf-Fuß-Raster, Türen, Räumen und markierten Kaminen.</desc><style>
text{font-family:DejaVu Sans,sans-serif;fill:#24221e}.title{font-size:26px;font-weight:bold}
.room{font-size:15px;font-weight:bold}.small{font-size:11px}.tiny{font-size:9px}
.outer{fill:#f3ead8;stroke:#292724;stroke-width:8}.wall{stroke:#292724;stroke-width:6;fill:none;stroke-linecap:square}
.grid{stroke:#a89f8d;stroke-width:.8;opacity:.48}.furn{fill:#d1b992;stroke:#776047;stroke-width:2}
.fire{fill:#efba82;stroke:#a83d20;stroke-width:3}.door{stroke:#806548;stroke-width:3;fill:none}
</style>
<rect width="1000" height="760" fill="#faf7ee"/><text x="48" y="48" class="title">THE GREEN REST · 2. OBERGESCHOSS</text>
<text x="48" y="74" class="small">Kampfraster: 1 Feld = 5 ft · Außenmaße aus der Skizze angenähert, nicht vermessen</text>
<text x="100" y="112" class="small">OBEN WIE IN DER SKIZZE</text>
<rect class="outer" x="100" y="140" width="576" height="480"/><path class="grid" d="M148 140V620"/><path class="grid" d="M196 140V620"/><path class="grid" d="M244 140V620"/><path class="grid" d="M292 140V620"/><path class="grid" d="M340 140V620"/><path class="grid" d="M388 140V620"/><path class="grid" d="M436 140V620"/><path class="grid" d="M484 140V620"/><path class="grid" d="M532 140V620"/><path class="grid" d="M580 140V620"/><path class="grid" d="M628 140V620"/><path class="grid" d="M100 188H676"/><path class="grid" d="M100 236H676"/><path class="grid" d="M100 284H676"/><path class="grid" d="M100 332H676"/><path class="grid" d="M100 380H676"/><path class="grid" d="M100 428H676"/><path class="grid" d="M100 476H676"/><path class="grid" d="M100 524H676"/><path class="grid" d="M100 572H676"/><rect class="furn" x="148" y="236" width="96" height="48"/><rect class="furn" x="532" y="236" width="96" height="48"/><rect class="furn" x="148" y="380" width="96" height="48"/><rect class="furn" x="532" y="380" width="96" height="48"/><rect class="furn" x="148" y="524" width="96" height="48"/><rect class="furn" x="532" y="524" width="96" height="48"/><path class="wall" d="M340 140V284 M436 140V284 M532 140V284"/><path class="wall" d="M100 284H676 M292 284V428 M484 284V428"/><path class="wall" d="M100 428H292 M484 428H676"/><path class="wall" d="M292 428V620 M484 428V620"/><path class="wall" d="M292 524H340 M388 524H484"/><path class="door" d="M292 284L340 284"/><path class="door" d="M436 284L484 284"/><path class="door" d="M292 428L340 428"/><path class="door" d="M484 524L532 524"/><g><rect class="fire" x="540" y="292" width="32" height="32"/><text class="small" x="544" y="313">F6</text></g><text class="room" x="148" y="188">Zimmer</text><text class="room" x="340" y="188">Zimmer</text><text class="room" x="532" y="188">Zimmer</text><text class="room" x="148" y="332">Zimmer</text><text class="room" x="532" y="332">Zimmer</text><text class="room" x="148" y="524">Zimmer</text><text class="room" x="532" y="524">Zimmer</text><text class="room" x="436" y="428">Flur</text>
<g transform="translate(900 620)"><rect class="fire" width="32" height="32"/><text x="42" y="20" class="small">Kamin / Feuerstelle</text>
<path d="M0 70H96 M0 64V76 M96 64V76" stroke="#292724" stroke-width="2"/><text x="22" y="94" class="small">10 ft</text>
<text x="0" y="140" class="tiny">Zweiter Obergeschoss-Grundriss aus</text><text x="0" y="156" class="tiny">Details nach Skizze angenähert.</text></g></svg>